<?xml version="1.0" encoding="UTF-8"?>
<svg xmlns="http://www.w3.org/2000/svg" width="44" height="44" viewBox="0 0 44 44" fill="none">
<path d="M22 6 C12 6, 8 14, 8 22 C8 26, 10 30, 14 32 L14 38 L18 38 L18 33 C19.5 33.5, 20.7 33.7, 22 33.7 C23.3 33.7, 24.5 33.5, 26 33 L26 38 L30 38 L30 32 C34 30, 36 26, 36 22 C36 14, 32 6, 22 6Z" stroke="#5B9A9A" stroke-width="1.5" fill="rgba(91,154,154,0.06)"></path>
<path d="M15 20 Q18 16, 22 20 Q26 16, 29 20" stroke="#7abfbf" stroke-width="1.5" stroke-linecap="round" fill="none"></path>
</svg>